<?xml version="1.0" encoding="utf-8"?>
<!DOCTYPE svg PUBLIC "-//W3C//DTD SVG 1.0//EN" "http://www.w3.org/TR/2001/REC-SVG-20010904/DTD/svg10.dtd">
<svg version="1.0" xmlns="http://www.w3.org/2000/svg" width="240px" height="95px" viewBox="0 0 240 95" preserveAspectRatio="xMidYMid meet">
 <g fill="#ffffff">
  <path d="M79.05 93.50 c-0.57 -0.43 -1.15 -0.75 -1.25 -0.75 -0.10 0 -1.08 -0.75 -2.17 -1.65 -1.10 -0.90 -2.92 -2.40 -4.03 -3.30 -2.53 -2.08 -3.20 -3 -2.97 -4.03 0.17 -0.80 1.38 -2.03 2.90 -2.97 0.52 -0.30 1.10 -0.82 1.33 -1.17 0.85 -1.30 0.28 -3.72 -1.17 -4.95 -1.60 -1.33 -3.38 -2.25 -4.45 -2.38 -1.92 -0.17 -3.05 0.68 -4.88 3.65 -0.98 1.63 -1.02 1.67 -1.95 1.63 -0.60 -0.05 -1.23 -0.30 -1.73 -0.73 -1.67 -1.38 -7.22 -6.75 -7.47 -7.18 -0.20 -0.38 -0.05 -0.75 0.73 -1.85 0.52 -0.77 1.33 -1.98 1.77 -2.67 1.45 -2.30 2.92 -4.22 3.60 -4.72 1.13 -0.85 2.22 -0.32 4.70 2.17 1.67 1.73 2.28 2.15 3.20 2.40 1.13 0.28 1.15 0.28 1.92 -0.55 0.45 -0.45 1.42 -1.30 2.20 -1.88 2.47 -1.85 3.78 -4.25 3.20 -5.90 -0.43 -1.20 -1.50 -2.45 -2.55 -2.90 -0.52 -0.25 -1.27 -0.73 -1.65 -1.10 -0.38 -0.38 -1.08 -1 -1.50 -1.40 -1.35 -1.20 -1.10 -2.70 0.95 -5.78 1.33 -2 4.15 -4.72 5.13 -4.90 1.98 -0.38 5.05 1.45 9.75 5.72 1.65 1.48 2.50 1.77 3.13 1.02 0.22 -0.28 0.30 -1.10 0.28 -2.88 -0.08 -2.88 0.13 -3.42 1.83 -4.93 2.30 -2.03 5.57 -2.05 8.70 -0.05 0.65 0.40 1.38 0.75 1.60 0.75 0.68 0 2.08 1.75 3.05 3.75 0.80 1.67 0.90 2.10 0.88 3.80 0 1.67 -0.10 2.08 -0.75 3.13 -0.93 1.50 -2.63 2.50 -4.65 2.72 -1.33 0.15 -1.45 0.22 -1.45 0.77 0 0.98 0.30 1.35 3.80 4.57 3.97 3.67 4.70 4.63 4.70 6.22 -0.03 1.92 -1.75 5.47 -3.72 7.63 -0.98 1.02 -2.53 1.88 -3.50 1.90 -0.98 0 -2.55 -1.13 -4.03 -2.88 -1.55 -1.85 -2.53 -2.30 -4.32 -2.03 -1.65 0.25 -3.40 1.77 -4.80 4.15 -0.63 1.05 -1.13 2.10 -1.13 2.35 0 0.22 0.22 0.85 0.47 1.38 0.40 0.77 0.70 1 1.65 1.27 1.30 0.38 3.67 1.83 4.60 2.83 0.75 0.82 0.95 2.50 0.45 3.72 -0.75 1.77 -5.13 6.82 -6.90 7.97 -1.40 0.90 -2.13 0.90 -3.47 -0.03z"/>
  <path d="M121.47 73.90 c-1.63 -0.43 -2.58 -1.20 -3.53 -2.85 -0.82 -1.40 -0.82 -1.48 -0.82 -4.55 0 -2.92 0.05 -3.22 0.70 -4.57 0.50 -1 1.05 -1.65 1.75 -2.13 0.90 -0.60 1.27 -0.68 3.65 -0.75 2.35 -0.08 2.78 -0.03 3.78 0.50 0.95 0.47 1.25 0.85 1.95 2.25 0.47 0.93 0.77 1.80 0.68 1.95 -0.08 0.13 -0.88 0.25 -1.77 0.25 -1.63 0 -1.63 0 -1.98 -0.88 -0.47 -1.10 -1.10 -1.42 -2.67 -1.33 -1.67 0.10 -2.15 0.73 -2.50 3.22 -0.32 2.15 0.03 4.30 0.82 5.32 0.70 0.90 2.22 1.33 3.20 0.90 1.10 -0.45 1.33 -0.82 1.13 -1.88 -0.17 -0.93 -0.17 -0.93 -1.25 -0.80 -1.23 0.13 -1.35 -0.03 -1.35 -1.73 l0 -1.13 3.20 0.08 3.17 0.08 0.03 2.63 c0.05 3.80 0.05 3.80 -1.48 4.55 -1.27 0.65 -3.65 1.23 -4.90 1.17 -0.35 0 -1.17 -0.15 -1.80 -0.32z"/>
  <path d="M135.35 73.90 c-2.53 -0.60 -3.83 -2.22 -4.03 -5.03 -0.17 -1.92 0.25 -3.40 1.23 -4.53 1.15 -1.30 2.08 -1.70 3.95 -1.70 1.80 0 2.72 0.38 3.78 1.52 1 1.08 1.23 1.63 1.38 3.65 l0.17 1.85 -3.28 -0.10 c-1.98 -0.08 -3.30 -0.03 -3.40 0.13 -0.45 0.73 0.95 1.80 2.30 1.80 0.40 0 1.02 -0.22 1.40 -0.52 0.82 -0.65 1.38 -0.47 2.08 0.65 l0.57 0.88 -0.95 0.60 c-0.88 0.57 -2.70 1.15 -3.55 1.13 -0.20 0 -0.95 -0.15 -1.65 -0.32z m2.50 -6.80 c1 -0.40 -0.05 -1.85 -1.33 -1.85 -1.02 0 -1.95 1.23 -1.35 1.83 0.20 0.22 2.15 0.22 2.67 0.03z"/>
  <path d="M155.13 74 c-2.72 -0.55 -4.15 -2.38 -4.32 -5.47 -0.08 -1.70 -0.03 -2.05 0.63 -3.28 0.95 -1.85 2.25 -2.60 4.57 -2.60 3.17 -0.03 4.82 1.60 5.15 5.05 l0.17 1.80 -0.85 0.03 c-0.47 0.03 -2 0.03 -3.40 0.03 -2.35 -0.03 -2.58 0.03 -2.58 0.45 0 0.68 0.63 1.20 1.65 1.40 0.65 0.13 1.17 0 2.10 -0.45 1.35 -0.68 1.52 -0.63 2.22 0.75 0.43 0.82 0.22 1.15 -1.02 1.75 -1.35 0.63 -3 0.82 -4.32 0.55z m2.58 -7.43 c0.05 -0.35 -0.13 -0.68 -0.55 -0.95 -0.52 -0.35 -0.77 -0.38 -1.52 -0.13 -0.90 0.30 -1.52 1.05 -1.25 1.52 0.10 0.13 0.85 0.22 1.70 0.17 1.38 -0.08 1.55 -0.13 1.63 -0.63z"/>
  <path d="M177.40 74 c-1.02 -0.32 -1.83 -1.17 -2 -2.08 -0.08 -0.45 -0.15 -2 -0.17 -3.47 l-0.05 -2.67 -0.85 -0.75 c-0.45 -0.40 -0.82 -0.88 -0.82 -1.02 0 -0.17 0.38 -0.68 0.85 -1.13 0.77 -0.73 0.85 -0.90 0.73 -1.85 l-0.15 -1.02 2.05 0 2.03 0 0 1.40 0 1.40 0.88 -0.15 0.88 -0.17 0 1.40 0 1.38 -0.85 0 c-0.77 0 -0.85 0.08 -1 0.95 -0.22 1.42 -0.17 4.38 0.10 4.80 0.13 0.20 0.60 0.38 1.05 0.38 0.80 0 0.82 0.05 0.90 1.10 0.05 0.60 0 1.17 -0.13 1.30 -0.32 0.32 -2.63 0.47 -3.42 0.22z"/>
  <path d="M186.05 74 c-2.30 -0.47 -3.80 -2.10 -4.25 -4.53 -0.73 -3.83 1.48 -6.78 5.05 -6.82 3.20 -0.05 4.95 1.67 5.30 5.18 l0.17 1.67 -2.72 0.05 c-1.50 0 -3.03 0 -3.40 -0.03 -0.55 -0.05 -0.70 0.05 -0.70 0.45 0 1.23 1.58 1.80 3.25 1.17 1.98 -0.75 1.95 -0.75 2.47 0.13 0.30 0.47 0.52 1 0.52 1.15 0 0.47 -2.22 1.50 -3.50 1.65 -0.63 0.08 -1.60 0.05 -2.20 -0.08z m2.58 -7.50 c0 -1.38 -2.20 -1.63 -3.05 -0.35 -0.55 0.88 -0.15 1.13 1.67 1.05 1.27 -0.08 1.38 -0.13 1.38 -0.70z"/>
  <path d="M196.38 74.07 c-1.17 -0.30 -2.63 -1.48 -3 -2.40 -0.57 -1.48 -0.55 -1.50 1.33 -1.33 0.93 0.08 1.70 0.15 1.70 0.15 0.03 0 0.13 0.28 0.20 0.63 0.15 0.55 0.30 0.63 1.25 0.63 1.17 0 1.75 -0.43 1.60 -1.17 -0.05 -0.30 -0.55 -0.57 -1.58 -0.85 -1.75 -0.47 -3 -1.08 -3.80 -1.80 -0.47 -0.43 -0.57 -0.77 -0.57 -1.90 0.03 -1.65 0.25 -2 1.75 -2.78 2.35 -1.23 6.05 -0.55 7.20 1.30 0.95 1.52 0.80 1.70 -1.33 1.70 -1.77 0 -1.88 -0.03 -2.03 -0.63 -0.13 -0.52 -0.30 -0.63 -1.10 -0.63 -1.08 0 -1.35 0.38 -0.93 1.25 0.22 0.45 0.70 0.70 1.92 1 1.70 0.40 3.08 1.20 3.50 2 0.38 0.70 0.30 2.17 -0.15 3.03 -0.22 0.47 -0.80 0.95 -1.42 1.23 -1.10 0.47 -3.67 0.82 -4.55 0.57z"/>
  <path d="M143 68.38 l0 -5.63 1.23 0 c0.68 0 1.42 -0.08 1.65 -0.15 0.28 -0.13 0.45 0 0.55 0.38 0.17 0.65 0.32 0.65 1.42 0 0.47 -0.28 1.13 -0.47 1.45 -0.43 0.52 0.08 0.57 0.22 0.65 1.75 l0.08 1.65 -1.08 0 c-0.60 -0.03 -1.35 0.10 -1.65 0.28 -0.52 0.28 -0.55 0.43 -0.55 4.03 l0 3.75 -1.88 0 -1.88 0 0 -5.63z"/>
  <path d="M162.50 68.38 l0 -5.63 1.63 0 c1.35 0 1.65 0.08 1.88 0.50 0.28 0.50 0.28 0.50 0.95 0 1.05 -0.75 3 -0.90 3.97 -0.28 1.55 0.98 1.67 1.40 1.83 6.25 0.10 2.42 0.13 4.47 0.05 4.60 -0.05 0.10 -0.93 0.17 -1.98 0.17 l-1.88 0 0.17 -3.67 c0.17 -4.25 0 -4.90 -1.30 -5.03 -0.55 -0.05 -0.95 0.08 -1.30 0.43 -0.47 0.47 -0.52 0.82 -0.52 4.40 l0 3.88 -1.75 0 -1.75 0 0 -5.63z"/>
  <path d="M26 73.55 c-0.73 -0.15 -1.05 -0.45 -1.95 -1.80 -0.60 -0.90 -1.42 -2.30 -1.85 -3.13 -0.40 -0.82 -0.90 -1.67 -1.10 -1.88 -0.17 -0.22 -0.50 -1.05 -0.70 -1.85 -0.35 -1.27 -0.35 -1.55 -0.03 -2.33 0.22 -0.50 0.57 -1.05 0.82 -1.25 0.90 -0.73 3.65 -1.85 4.90 -2 0.77 -0.08 1.50 -0.35 1.83 -0.65 0.70 -0.63 0.98 -1.92 0.63 -2.85 -0.15 -0.40 -0.47 -1.27 -0.75 -2 -0.63 -1.65 -2.10 -3.45 -3.10 -3.80 -1.83 -0.65 -3.65 -0.20 -5.20 1.23 -1.45 1.35 -2.28 1.75 -3.60 1.75 -1.15 0 -1.33 -0.08 -2.38 -1.20 -2.47 -2.55 -3.92 -7.50 -2.92 -9.88 0.45 -1.13 1.83 -2.25 5.28 -4.30 3.45 -2.03 4.38 -2.83 4.38 -3.72 0 -0.55 -0.17 -0.68 -1.38 -1.02 -2.42 -0.73 -4.13 -3 -4.13 -5.57 0 -2.55 3.40 -7.30 5.22 -7.30 0.28 0 1.25 -0.28 2.17 -0.63 3.42 -1.27 6.20 -0.60 8.07 2.03 0.88 1.23 1.02 1.60 1.02 2.70 -0.03 0.70 -0.17 1.73 -0.38 2.28 -1.08 2.97 0.32 3.97 3 2.13 2.75 -1.90 7.53 -4 9.05 -4 0.98 0 2.17 0.80 3.05 2 1.13 1.55 2.75 5 3.08 6.53 0.50 2.40 -0.17 3.08 -5.43 5.35 -1.02 0.45 -1.35 0.75 -1.85 1.73 -0.98 1.98 -0.30 3.85 2.65 7.35 2.17 2.60 2.58 2.65 5.43 0.75 1.05 -0.73 2.30 -1.52 2.72 -1.75 0.93 -0.52 2.50 -0.60 2.88 -0.13 0.73 0.90 4.30 8.88 4.30 9.63 0 0.30 -1.05 1.15 -3.42 2.72 -6.63 4.35 -7.38 4.57 -8.20 2.40 -0.82 -2.20 -1.88 -4.05 -2.50 -4.47 -0.90 -0.60 -2.58 -0.85 -3.35 -0.52 -2.35 0.95 -3.75 1.73 -4.40 2.42 -0.68 0.70 -0.75 0.95 -0.75 2.33 l0 1.55 1.70 1.65 c1.45 1.45 1.67 1.80 1.67 2.55 0 0.75 -0.17 1.02 -1.05 1.75 -0.60 0.47 -1.58 1.13 -2.20 1.42 -0.63 0.32 -1.60 0.90 -2.17 1.27 -0.57 0.40 -1.10 0.73 -1.17 0.73 -0.08 0 -1 0.43 -2.08 0.93 -2.03 0.98 -3.88 1.25 -5.82 0.88z"/>
  <path d="M216 57.80 l-3.13 -0.08 0.08 -5.93 c0.03 -3.25 0.10 -9.80 0.13 -14.55 l0.05 -8.63 3.05 -0.08 3.05 -0.08 0.20 0.70 c0.25 0.98 0.20 4.43 -0.15 9.70 -0.43 6.07 -0.63 12.93 -0.43 13.73 l0.15 0.65 4.63 0 c2.55 0 4.63 0.08 4.63 0.20 0 0.38 -0.77 4.15 -0.85 4.25 -0.15 0.13 -7.32 0.20 -11.40 0.10z"/>
  <path d="M155.75 57.08 c-2.55 -0.43 -4.47 -1.48 -5.50 -3.03 -0.95 -1.45 -1.42 -3.03 -1.75 -5.97 -0.28 -2.60 -0.50 -3.30 -1.42 -4.63 -0.45 -0.68 -0.88 -0.98 -1.48 -1.10 -1.55 -0.30 -1.60 -0.10 -1.42 5 0.13 3.72 0.08 4.57 -0.20 4.80 -0.25 0.22 -0.95 0.20 -2.67 -0.05 -1.30 -0.17 -2.42 -0.40 -2.50 -0.47 -0.10 -0.10 -0.22 -4.13 -0.30 -8.95 l-0.13 -8.80 -0.68 -0.32 c-0.70 -0.32 -0.70 -0.32 -0.63 -2.75 l0.05 -2.40 2.13 -0.32 c4.47 -0.65 11.57 -0.10 13.32 1.05 0.32 0.20 0.93 0.98 1.33 1.70 0.68 1.20 0.73 1.50 0.73 3.92 0 3.42 -0.35 4.55 -1.83 5.90 l-1.15 1.08 0.57 1.02 c0.30 0.55 0.95 2.72 1.40 4.80 1.15 5.07 1.10 5.03 5.20 5.20 l3.05 0.13 0.08 1.63 c0.13 2.83 0.22 2.75 -2.90 2.72 -1.48 -0.03 -2.95 -0.10 -3.30 -0.15z m-7.80 -19.67 c0.85 -0.85 0.55 -4.88 -0.43 -5.40 -0.52 -0.28 -3.42 -0.43 -3.67 -0.20 -0.20 0.20 -0.15 5.68 0.08 6.03 0.20 0.35 3.63 0 4.03 -0.43z"/>
  <path d="M166.02 56.03 c-1.27 -0.22 -1.42 -0.65 -0.95 -2.92 0.22 -1.10 0.85 -4.18 1.42 -6.85 0.55 -2.67 1.40 -6.50 1.92 -8.50 0.50 -2 0.85 -3.83 0.77 -4.05 -0.15 -0.35 -0.47 -0.40 -2.55 -0.28 l-2.38 0.15 -0.15 -0.90 c-0.10 -0.47 -0.05 -1.50 0.13 -2.25 l0.28 -1.40 1.55 -0.13 c3.08 -0.28 16.27 -0.88 16.48 -0.75 0.10 0.08 0.20 1.02 0.20 2.13 l0 1.98 -1.90 0 -1.90 0 0.13 0.70 c0.63 3.35 3.17 12.48 4.50 16.17 0.35 0.98 0.70 2.17 0.77 2.70 0.10 0.55 0.28 1.48 0.43 2.10 0.17 0.65 0.20 1.20 0.08 1.33 -0.28 0.28 -4.60 0.98 -5.03 0.82 -0.35 -0.15 -1.58 -3.78 -1.58 -4.68 0 -0.30 -0.15 -0.75 -0.32 -1 -0.30 -0.40 -0.70 -0.45 -3.42 -0.43 -2.13 0.03 -3.17 0.15 -3.30 0.35 -0.17 0.28 -0.63 2.20 -1.08 4.60 -0.22 1.17 -1.63 1.55 -4.10 1.10z m10.98 -9.73 c0 -0.10 -0.55 -2.47 -1.25 -5.30 -0.70 -2.83 -1.33 -5.45 -1.40 -5.85 -0.08 -0.38 -0.17 -0.65 -0.25 -0.60 -0.32 0.35 -1.17 3.30 -1.98 6.88 -0.82 3.83 -1 4.88 -0.77 5.10 0.17 0.17 5.65 -0.05 5.65 -0.22z"/>
  <path d="M122.05 52.60 c-2.72 -0.73 -4.07 -2.25 -4.95 -5.60 -0.88 -3.30 -0.50 -13.95 0.55 -16.02 1.17 -2.33 3.88 -3.13 9.70 -2.90 4.63 0.17 5.45 0.38 6.65 1.55 1.42 1.40 2.42 5.50 1.77 7.20 l-0.28 0.70 -3.17 -0.08 -3.20 -0.08 -0.13 -2.30 c-0.08 -1.27 -0.25 -2.42 -0.40 -2.58 -0.50 -0.50 -2.20 -0.57 -3.03 -0.15 -1.48 0.75 -2.08 3.70 -2.08 10.15 0 3.35 0.08 4.13 0.47 5.10 0.43 0.93 0.63 1.15 1.33 1.27 1.42 0.28 2.47 -0.38 3.22 -2 0.35 -0.75 0.38 -0.75 2.60 -0.82 3.33 -0.10 3.38 -0.08 3.35 1.65 0 0.77 -0.15 1.83 -0.32 2.30 -0.40 1.10 -2.17 2.35 -3.90 2.72 -1.80 0.38 -6.60 0.32 -8.20 -0.13z"/>
  <path d="M157.20 51.83 c-0.08 -0.10 -0.03 -1.33 0.05 -2.70 0.30 -3.92 0.38 -15.50 0.15 -18.20 l-0.22 -2.45 2.47 0.08 2.47 0.08 0 11.45 c0 6.32 -0.05 11.50 -0.13 11.55 -0.35 0.17 -4.72 0.38 -4.80 0.20z"/>
  <path d="M204.35 48.85 c0.15 -3.20 0.22 -15.85 0.10 -18.73 l-0.08 -1.50 2.38 0 2.38 0 0.15 1.63 c0.10 0.90 0.05 4.28 -0.10 7.50 -0.17 3.95 -0.17 7.15 -0.03 9.75 0.15 2.13 0.20 3.95 0.13 4.03 -0.10 0.10 -1.25 0.25 -2.63 0.35 l-2.45 0.17 0.15 -3.20z"/>
  <path d="M191.07 51.40 c-0.10 -0.15 -0.15 -3.85 -0.10 -8.23 0.05 -5.95 0 -8.02 -0.22 -8.30 -0.22 -0.28 -0.88 -0.38 -2.40 -0.38 -2.08 0 -3.22 -0.30 -3.45 -0.90 -0.08 -0.17 0 -1.40 0.15 -2.70 l0.30 -2.40 8.32 0 8.32 0 0 2.75 0 2.75 -2.42 0 c-1.35 0 -2.60 0.10 -2.80 0.22 -0.30 0.20 -0.32 1.52 -0.20 8.60 0.13 5.15 0.08 8.45 -0.05 8.55 -0.47 0.28 -5.28 0.30 -5.45 0.03z"/>
  <path d="M57.75 41.55 c0 -0.28 8.05 -8.20 10.13 -9.95 4.50 -3.83 9.98 -7.53 13.25 -8.93 2.30 -1 5.55 -1.75 7.53 -1.75 2.05 0 4.28 0.85 4.97 1.92 0.88 1.33 -0.08 4.22 -1.80 5.57 -1.98 1.52 -4.07 2.22 -11.70 3.92 -9.05 2.03 -13.82 3.90 -19.27 7.55 -2.78 1.85 -3.10 2.03 -3.10 1.65z"/>
  <path d="M56.50 33.25 c0 -4.55 -1.10 -12.98 -2.47 -18.77 -1.08 -4.55 -1.35 -7.25 -1.10 -10.40 0.13 -1.75 0.17 -1.85 1 -2.35 0.70 -0.43 1.23 -0.52 2.50 -0.50 0.90 0.03 1.85 0.15 2.08 0.28 0.57 0.32 1.63 2.13 1.95 3.38 0.40 1.50 0.60 9.68 0.30 12 -1.08 8.27 -1.45 10.40 -2.63 14.90 -0.75 2.92 -1.23 4.22 -1.50 4.22 -0.08 0 -0.13 -1.23 -0.13 -2.75z"/>
  <path d="M61.50 33.78 c0 -0.10 0.63 -1.52 1.40 -3.15 2.13 -4.53 3.30 -7.40 4.72 -11.63 2.10 -6.22 4.90 -11.27 7.07 -12.75 0.80 -0.55 0.82 -0.55 1.75 -0.15 1.25 0.57 1.85 1.58 1.85 3.22 0.03 3.05 -1.40 6.05 -5.68 11.93 -0.88 1.20 -6.13 7.53 -8.48 10.20 -2.08 2.38 -2.65 2.88 -2.65 2.33z"/>
 </g>
</svg>