<?xml version="1.0" encoding="UTF-8"?>
<svg version="1.1" viewBox="0 0 2048 853" width="1280" height="1280" xmlns="http://www.w3.org/2000/svg">
<path transform="translate(807,340)" d="m0 0 13 1 16 5 10 5 14 8 10 6 7 7 7 11 9 19 4 15 1 7v9l-2 12-4 10-9 13-9 7-12 5-13 3-11 2-2 2 4 10 9 10v2h2l5 6 8 7 36 36 9 14 2 7v13l-3 12-9 21-11 18-9 11-8 8-15 9-9 1-14-7-9-8-13-17-8-8-8-4-3-1h-15l-13 5-12 11-7 8-10 17-6 12-1 10 5 10 5 5 15 6 13 7 12 9 9 10 4 9 1 4v9l-4 10-7 13-13 17-14 18-9 10-8 8-13 9-8 3-5-1-16-9-12-9-14-12-14-11-13-11-17-16-9-9-6-10-1-4 7-14 5-6 16-11 8-7 5-10 1-9-4-13-6-10-10-10-15-10-12-6-3-1h-9l-8 3-9 7-7 7-10 17-11 17-8-1-10-6-10-9-8-7-18-18-5-4-7-8-16-16-5-7 6-12 13-20 12-19 10-14 7-11 8-9 2-1h6l12 6 10 9 14 15 9 10 10 5 8 2 7-1 6-8 9-8 12-9 8-8 8-10 5-10 3-11-1-10-7-14-4-5-18-12-10-9-11-9-4-5-2-4v-10l4-12 10-19 8-12 11-13 13-14 10-7 7-2 10 2 13 5 11 7 12 9 13 11 15 13 19 19 7 2 6-7 2-6v-11l-1-7v-16l4-13 8-11 9-9 13-7z" fill="#FEFEFE"/>
<path transform="translate(233,168)" d="m0 0h15l12 3 11 6 11 11 8 14 2 7 1 9-2 13-6 18 1 6 7 9h6l16-10 15-10 26-14 25-10 5-1h9l10 4 10 10 11 18 11 23 8 24v15l-4 7-11 8-18 10-15 6-9 6-6 10-3 7-1 8 3 11 6 15 9 13 10 13 9 11 7 8 7-2 7-3 10-5 28-21 9-3 12-1 5 6 8 16 10 23 8 20 8 18 2 9-4 6-23 16-11 7-10 7-14 9-24 13-4 2-5-4-6-12-6-16-8-16-7-8-8-4-4-1h-10l-9 2-19 9-11 8-3 1-8 16-1 4v7l3 10 12 13 8 10 6 10 2 9-3 6-8 8-14 10-15 8-14 9-23 12-20 8-15 1-5-2-9 1-8-7-8-11-13-23-12-23-5-12-3-10v-12l5-10 7-7 14-8 17-7 9-1 11-2 6-5 4-9v-7l-6-20-6-15-7-11-9-10-8-4-5-1h-15l-13 5-12 11-14 11-6 2h-15l-7-4-11-11-8-13-9-20-6-23-1-6v-11l3-12 6-10 8-8 16-11 26-17 19-12 5-4 3-7-1-6-4-3-15-5-9-7-7-7-8-14-3-12v-13l4-16 7-14 9-12 11-12 9-6 18-5 8-4z" fill="#FEFEFE"/>
<path transform="translate(1146,375)" d="m0 0h47l24 3 17 4 11 7 6 7 6 12 3 11 1 7v26l-3 15-6 15-9 10-6 3h-2l4 13 7 21 7 30 5 23 6 12 8 4 5 1 37 1 7 1 2 5-1 30-4 3-50-1-14-3-14-6-8-6-7-7-6-10-7-16-4-17-3-30-4-17-8-14-6-5-3-1h-12l-3 2v18l1 13v54l-1 2-12-1-30-3-4-3-2-10-1-144-2-5-6-4-2-5v-40l3-2 19-1zm22 34-2 1v54l1 2h28l7-3 3-8 2-13-1-15-3-12-5-4-4-1z" fill="#FEFEFE"/>
<path transform="translate(1473,378)" d="m0 0h26l1 1-1 35-2 1h-31l10 38 8 34 10 40 15 47 8 34 2 13-6 3-26 4h-14l-4-8-9-32-3-12v-3l-36 1h-22l-2 18-6 30-2 5-5 2h-23l-13-2-2-2v-12l16-82 8-40 12-50 2-12v-5l-36 4h-5l-2-3-1-6v-13l1-15 3-5 2-1 41-3zm-48 57-5 10-8 34-10 49-2 10v5h50l-1-11-11-46-8-35-3-15z" fill="#FEFEFE"/>
<path transform="translate(992,377)" d="m0 0h47l24 2 10 3 9 6 8 9 5 12 3 11 2 17v16l-2 7-2 2h-54l-2-3v-27l-2-13-5-5-6-2h-8l-8 3-6 7-5 12-3 14-3 27v63l4 16 4 6 4 3 3 1h9l8-3 5-4 5-11 3-7 1-1 40 1 6 1 2 5v17l-3 12-6 10-7 7-12 6-13 3-9 1h-45l-11-2-16-7-9-7-7-7-6-12-5-16-2-12-2-23v-61l2-22 4-22 4-10 11-12 9-5 7-3 10-2z" fill="#FEFEFE"/>
<path transform="translate(777,186)" d="m0 0 16 1 17 5 11 8 4 5 3 10-1 11-6 15-9 12-10 8-16 8-22 8-48 12-46 11-46 15-24 10-23 11-15 9-16 11-15 11-11 9h-3l1-5 9-10 20-20 7-8 11-11 7-8 18-18 8-7 13-12 11-10 10-8 16-13 16-12 18-12 22-13 25-12 21-6z" fill="#FEFEFE"/>
<path transform="translate(1758,381)" d="m0 0h40l11 1 4 4v46l-5 104-1 25v41l80 2v7l-5 29-3 4-4 1h-32l-85-1-2-3 1-18z" fill="#FEFEFE"/>
<path transform="translate(1522,380)" d="m0 0 140 1 2 2v46l-7 2-40-1v40l2 93v21l-2 3-4 1-26 1h-17l-2-2v-151l-45-2-4-4-1-3v-19l2-22z" fill="#FEFEFE"/>
<path transform="translate(499,8)" d="m0 0h14l9 3 8 7 8 14 4 11 2 20 1 24v43l-3 40-8 55-8 42-10 42-6 15-3-1v-38l-2-30-7-59-7-41-12-60-3-21v-47l5-10 10-7z" fill="#FEFEFE"/>
<path transform="translate(666,52)" d="m0 0h8l9 5 6 7 4 9 1 4v14l-4 19-5 14-10 21-15 24-15 22-11 14-10 13-9 12-7 9-8 10-9 11-11 13-8 10-9 11-9 10-4 2 1-8 11-22 12-29 13-33 8-21 14-45 10-25 16-33 9-14 11-14 9-9z" fill="#FEFEFE"/>
<path transform="translate(1683,381)" d="m0 0h35l6 1 1 2 1 10v47l-2 53v41l2 40v14l-7 2-35 1-2-2v-13l1-13 2-134-2-34z" fill="#FEFEFE"/>
<path transform="translate(1281,381)" d="m0 0h36l6 1 1 3v54l-1 28v92l1 4v23l-2 3-29 3-12 1-1-2 1-24 1-17 1-84v-46l-2-29z" fill="#FEFEFE"/>
</svg>
