<?xml version="1.0" encoding="UTF-8"?>
<svg version="1.1" viewBox="0 0 1920 1080" width="1920" height="1080" xmlns="http://www.w3.org/2000/svg">
<path transform="translate(0)" d="m0 0h1920v1080h-1920z" fill="#fff"/>
<path transform="translate(1212)" d="m0 0h708v1080h-788l-11-13-18-22-14-17-13-16-11-14-14-18-15-20-13-18-26-39-15-25-12-22-14-29-11-28-8-26-6-26-3-20-1-10v-47l3-24 6-28 8-27 11-29 11-25 14-29 13-24 14-24 14-23 16-25 20-30 15-22 16-23 42-60 32-48 15-25 12-22 12-25 9-24 7-24 4-24 1-21-1-18-4-24-5-19z" fill="#F2AF00"/>
<path transform="translate(1212)" d="m0 0h327l-6 8-10 11-9 11-13 15-9 11-13 16-11 16-8 14-6 14-6 21-4 21-16 102-15 88-11 58-11 53-13 55-11 40-13 42-15 44-20 55-17 48-11 36-8 32-5 28-3 27-1 15v50l3 42 7 56 7 45v6h-159l-11-13-18-22-14-17-13-16-11-14-14-18-15-20-13-18-26-39-15-25-12-22-14-29-11-28-8-26-6-26-3-20-1-10v-47l3-24 6-28 8-27 11-29 11-25 14-29 13-24 14-24 14-23 16-25 20-30 15-22 16-23 42-60 32-48 15-25 12-22 12-25 9-24 7-24 4-24 1-21-1-18-4-24-5-19z" fill="#0476D8"/>
<path transform="translate(1901)" d="m0 0h19v1080h-192l1-6 14-38 15-44 8-28 8-33 5-29 3-28 1-17v-28l-2-28-4-28-6-28-8-28-11-32-11-28-13-31-17-39-18-41-18-43-14-37-12-36-7-26-6-30-3-27v-31l3-23 6-25 9-24 11-22 13-21 14-19 9-11 12-14 15-16 14-14 8-7 14-13 11-9 15-13 14-11 18-14 20-15 19-14 36-26z" fill="#0476D8"/>
</svg>
