<?xml version="1.0" encoding="UTF-8"?>
<svg version="1.1" viewBox="0 0 1920 1080" width="1280" height="1280" xmlns="http://www.w3.org/2000/svg">
<path transform="translate(1217)" d="m0 0h703v1080h-783l-9-10-9-11-9-10-9-11-11-13-9-11-13-16-11-14-16-21-13-18-12-17-17-26-12-20-14-25-15-31-11-28-9-29-6-28-3-22-1-14v-24l2-23 5-28 8-29 9-25 12-28 12-25 12-22 15-26 15-24 14-22 15-22 13-19 16-23 12-17 28-40 15-22 16-24 12-19 9-15 14-25 13-27 10-26 7-23 5-22 3-20 1-11v-39l-3-27z" fill="#F1AE00"/>
<path transform="translate(1217)" d="m0 0h320l-6 8-11 12-11 14-13 16-13 19-9 14-10 18-8 17-7 20-6 22-6 35-5 25-6 37-5 39-4 35-9 46-6 28-10 48-8 35-10 41-10 39-13 44-16 49-10 28-10 29-7 20-12 36-7 24-8 37-4 32-1 16v61l2 34 4 41 7 55v6h-152l-9-10-9-11-9-10-9-11-11-13-9-11-13-16-11-14-16-21-13-18-12-17-17-26-12-20-14-25-15-31-11-28-9-29-6-28-3-22-1-14v-24l2-23 5-28 8-29 9-25 12-28 12-25 12-22 15-26 15-24 14-22 15-22 13-19 16-23 12-17 28-40 15-22 16-24 12-19 9-15 14-25 13-27 10-26 7-23 5-22 3-20 1-11v-39l-3-27z" fill="#0475D9"/>
<path transform="translate(1904)" d="m0 0h16v1080h-195l3-10 12-30 13-35 13-40 9-36 6-35 3-34v-33l-2-26-5-32-6-26-10-33-13-35-15-36-18-41-20-45-18-42-14-36-11-31-10-35-6-29-3-22-1-13v-25l3-26 6-24 8-22 10-21 12-20 12-17 10-13 12-14 11-12 15-16 8-7 9-9 8-7 10-9 11-9 17-14 13-10 21-16 19-14 17-12 18-13 19-13z" fill="#0475D9"/>
</svg>
