<?xml version="1.0" encoding="UTF-8"?>
<svg version="1.1" viewBox="0 0 2048 853" width="2048" height="853" xmlns="http://www.w3.org/2000/svg">
<path transform="translate(0)" d="m0 0h2048v853h-2048z"/>
<path transform="translate(800,341)" d="m0 0h19l15 4 12 6 14 8 10 6 8 8 8 14 7 15 4 15 1 7v9l-2 12-4 9-6 10-6 7-8 5-14 5-20 4-2 2 4 10 9 10 7 8 10 9 34 34 9 14 2 7v13l-3 12-8 19-10 17-10 13-9 9-15 9-9 1-14-7-9-8-13-17-8-8-8-4-3-1h-15l-13 5-10 9-7 7-8 13-10 19-1 10 5 10 5 5 15 6 13 7 13 10 8 9 4 9 1 4v9l-4 10-7 13-13 17-14 18-9 10-8 8-13 9-8 3-5-1-16-9-12-9-14-12-14-11-14-12-16-15-9-9-6-10-1-4 7-14 5-6 16-11 9-8 4-9 1-9-4-13-5-9-12-12-16-10-10-5-3-1h-9l-8 3-9 7-3 1-2 4-7 10-8 14-8 12-8-1-10-6-10-9-8-7-46-46-5-7 6-12 13-20 12-19 10-14 7-11 8-9 2-1h6l15 8 11 11 7 8 12 13 10 5 8 2 7-1 6-8 9-8 12-9 8-8 8-10 5-10 3-11-1-10-7-14-5-6-10-6-11-8-12-11-8-7-3-6v-10l4-12 10-19 8-12 11-13 13-14 10-7 2-1h12l13 5 11 6 14 10 14 12 15 13 19 19 4 2 4-1 6-8 1-4v-11l-1-7v-16l4-13 8-11 9-9 14-7z" fill="#fff"/>
<path transform="translate(233,168)" d="m0 0h15l12 3 11 6 11 11 8 14 2 7v18l-5 16-2 6 1 6 7 9h6l16-10 17-11 24-13 25-10 5-1h9l10 4 10 10 11 18 11 23 8 24v15l-4 7-11 8-18 10-15 6-9 6-5 7-4 10-1 7 3 12 6 15 9 13 10 13 9 11 7 8 7-2 7-3 10-5 28-21 16-4h5l6 7 13 28 10 25 10 23 2 9-4 6-23 16-11 7-22 15-23 12-5 4-5-2-6-9-8-21-8-16-8-9-11-4h-10l-9 2-19 9-11 8-3 1-8 16-1 4 1 13 4 6 9 10 9 11 6 10 2 9-3 6-8 8-14 10-15 8-14 9-23 12-19 8-16 1-5-2-9 1-8-7-8-11-13-23-12-23-5-12-3-10v-12l5-10 7-7 19-10 16-6 13-1 6-3 4-5 3-7v-7l-6-20-6-15-7-11-9-10-8-4-5-1h-15l-13 5-12 11-11 9-5 3-9 2-10-1-7-4-11-11-8-13-8-18-6-20-2-11v-11l3-12 6-10 8-8 13-9 29-19 19-12 5-4 3-7-1-6-4-3-14-5-9-6-8-8-8-14-3-12v-13l4-16 7-14 10-13 9-10 10-7 18-5 12-5z" fill="#fff"/>
<path transform="translate(1147,375)" d="m0 0h46l24 3 16 4 8 4 8 7 6 10 4 11 2 12v26l-3 15-6 15-4 6-9 6-4 1 4 13 7 21 7 30 5 23 6 12 8 4 5 1 37 1 7 1 2 3-1 32-4 3-50-1-14-3-14-6-8-6-7-7-6-10-7-16-4-17-4-36-4-13-7-12-6-5-3-1h-12l-3 2v19l1 12v54l-1 2-12-1-30-3-4-3-2-9-1-145-2-5-6-4-2-5v-40l3-2 19-1z" fill="#fff"/>
<path transform="translate(1474,378)" d="m0 0h25l1 1-1 35-2 1h-31l10 38 8 34 10 40 15 47 8 34 2 13-6 3-26 4h-14l-3-5-7-24-6-23v-3l-38 1h-20l-2 17-6 31-2 5-5 2h-23l-13-2-2-2v-12l21-108 10-43 6-26 2-12-38 4-5-1-1-1-1-8v-11l1-16 3-5 2-1 42-3z" fill="#fff"/>
<path transform="translate(992,377)" d="m0 0h47l24 2 10 3 9 6 8 9 5 11 4 19 1 10v16l-2 7-2 2h-54l-2-3v-27l-2-13-5-5-6-2h-8l-8 3-6 7-5 12-3 14-3 27v63l4 16 4 6 4 3 3 1h9l10-4 4-5 4-9 3-7 5-1 37 1 5 2 2 3v18l-3 12-6 10-9 8-10 5-13 3-9 1h-45l-11-2-16-7-9-7-7-7-6-12-5-16-2-12-2-24v-60l3-28 3-16 4-10 11-12 13-7 13-3z" fill="#fff"/>
<path transform="translate(777,186)" d="m0 0 16 1 16 5 10 6 6 7 3 10-1 11-6 15-9 12-7 6-12 7-20 8-24 7-37 9-42 10-37 12-24 9-28 13-19 11-20 14-11 8-11 9h-3l1-5 9-10 20-20 7-8 12-12 7-8 17-17 8-7 13-12 11-10 25-20 17-13 15-10 25-15 25-12 21-6z" fill="#fff"/>
<path transform="translate(1759,381)" d="m0 0h39l11 1 4 4v45l-5 105-1 26v40l80 2v7l-5 29-3 4-3 1h-34l-84-1-2-3 1-17 1-242z" fill="#fff"/>
<path transform="translate(1522,380)" d="m0 0 140 1 2 2v46l-7 2-40-1v40l2 93v21l-2 3-4 1-27 1h-16l-2-2v-151l-45-2-3-1-2-7v-17l2-23z" fill="#fff"/>
<path transform="translate(499,8)" d="m0 0h14l9 3 8 7 6 10 5 12 2 10 2 37v43l-3 40-8 55-8 42-10 42-6 15h-2l-1-2v-37l-2-30-6-52-6-37-14-71-3-21v-47l5-10 10-7z" fill="#fff"/>
<path transform="translate(666,52)" d="m0 0h8l9 5 6 7 4 9 1 4v14l-4 20-6 15-9 19-15 24-15 22-11 14-10 13-9 12-7 9-8 10-9 11-11 13-8 10-14 17-6 6h-2l1-8 11-22 12-29 13-33 8-21 15-48 9-22 16-33 9-14 11-14 9-9z" fill="#fff"/>
<path transform="translate(1683,381)" d="m0 0h35l6 1 1 2 1 10v48l-2 53v39l2 41v14l-7 2-35 1-2-2v-12l1-13 2-122v-14l-2-33z" fill="#fff"/>
<path transform="translate(1281,381)" d="m0 0h37l5 2 1 2v54l-1 29v91l1 4v23l-2 3-29 3-12 1-1-2 1-24 1-17 1-84v-46l-2-29z" fill="#fff"/>
<path transform="translate(1425,435)" d="m0 0 2 1 6 28 13 56 4 17v6h-50l1-10 9-45 9-39 4-12z"/>
<path transform="translate(1168,409)" d="m0 0 26 1 7 3 3 5 3 17-1 16-3 10-4 4-4 1h-28l-1-2v-54z"/>
</svg>
